<?xml version="1.0"?>
<svg width="960" height="960" xmlns="http://www.w3.org/2000/svg" xmlns:svg="http://www.w3.org/2000/svg">

 <g class="layer">
  <title>Layer 1</title>
  <path d="m917.39,52.52c22.97,0 41.63,18.43 42,41.31l0,0.69l-1,540.04c0,50.28 -56.06,130.67 -137.08,195.38c-44.98,35.92 -95.99,65.97 -150.54,87.48c-60.66,23.92 -124.43,36.84 -189.79,37.1l-2.14,0l-3.85,-0.07c-121.49,-2.9 -238.18,-50.04 -334.24,-125.61c-81.47,-64.09 -138.8,-143.05 -141.12,-193.36c-0.02,-0.2 -0.02,-0.41 -0.02,-0.61l1,-540.35c0,-22.96 18.43,-41.62 41.3,-42l0.7,0l874.78,0zm0,40l-355.75,562c-0.5,6.27 0.45,66.48 -1.12,72.58l-0.32,1.21l-5.53,20.51c-3.5,12.95 -15.16,21.99 -28.55,22.18l-0.42,0l-95.4,0c-13.22,0 -24.85,-8.64 -28.72,-21.33l-0.12,-0.4l-0.13,-0.45l-5.53,-20.51c-1.75,-6.47 -4.9,-67.09 -5.44,-73.79l-347.75,-562c-1.06,0 -1.92,0.82 -2,1.85l0,0.15l-1,539.53l0.03,0.52c0.47,6.52 2.74,14.64 6.69,23.91l0.61,1.4c0.1,0.24 0.2,0.47 0.31,0.71l0.64,1.42c0.22,0.48 0.44,0.96 0.67,1.44l0.69,1.46l0.69,1.42l0.36,0.71l0.35,0.71l0.74,1.45l0.76,1.45l0.38,0.74l0.79,1.47c0.97,1.78 1.98,3.59 3.04,5.42l0.8,1.38l0.92,1.55l0.46,0.77l0.95,1.56l0.48,0.79l0.98,1.57l0.5,0.8l1.01,1.59l1.03,1.6l0.79,1.21l0.8,1.21l1.09,1.63l0.55,0.81l1.12,1.64l0.57,0.82l0.57,0.83l1.17,1.65l0.59,0.83l1.19,1.67l0.62,0.85c22.99,31.67 55.18,64.67 92.93,94.36c89.63,70.52 198.2,114.37 310.45,117.06l3.37,0.06l3.18,-0.01c112.62,-0.85 220.09,-42.7 308.48,-111.58l2.67,-2.09l2.72,-2.16c37.43,-29.9 69.11,-63.23 91.41,-95.2c1.66,-2.38 3.25,-4.74 4.78,-7.07l0.91,-1.39l1.07,-1.66l1.05,-1.66l1.03,-1.64l0.51,-0.82l0.5,-0.82l0.98,-1.62l0.72,-1.21l0.71,-1.2l0.92,-1.6c1.6,-2.78 3.09,-5.51 4.48,-8.17l0.58,-1.14l0.77,-1.5l0.74,-1.49c0.77,-1.58 1.51,-3.14 2.2,-4.67l0.52,-1.14l0.62,-1.41c0.33,-0.78 0.66,-1.56 0.98,-2.32l0.46,-1.14l0.54,-1.36c3.58,-9.18 5.47,-17.15 5.56,-23.41l0,-0.48l1,-540.04c0,-1.05 -0.81,-1.91 -1.85,-2l-0.15,0zm-375.83,562l-131.12,0l0.03,0.35c0.42,4.09 3.12,62.14 4.1,66.14l0.27,1.09l0.27,1l5.51,20.42l0.07,0.27c1.21,4.18 4.99,7.08 9.32,7.21l0.29,0l95.4,0c4.43,0 8.31,-2.9 9.58,-7.12l0.08,-0.27l5.53,-20.51c1.16,-4.29 0,-62.66 0.51,-67.07l0.12,-1.11l0.04,-0.4z" id="svg_1"/>
 </g>
</svg>