<?xml version="1.0" encoding="UTF-8" standalone="no" ?>
<!DOCTYPE svg PUBLIC "-//W3C//DTD SVG 1.1//EN" "http://www.w3.org/Graphics/SVG/1.1/DTD/svg11.dtd">
<svg xmlns="http://www.w3.org/2000/svg" xmlns:xlink="http://www.w3.org/1999/xlink" version="1.1" width="99" height="39" viewBox="0 0 99 39" xml:space="preserve">
<desc>Created with Fabric.js 5.3.0</desc>
<defs>
</defs>
<g transform="matrix(9.915 0 0 3.9725505051 49.4750504032 19.681577621)" id="3UApQqL_0DYoKJzBkIHOF"  >
<path style="stroke: rgb(255,255,255); stroke-width: 0; stroke-dasharray: none; stroke-linecap: butt; stroke-dashoffset: 0; stroke-linejoin: miter; stroke-miterlimit: 4; fill: rgb(247,47,58); fill-rule: nonzero; opacity: 1;"  transform=" translate(-0.000005, 0)" d="M -4.98992 -4.18638 C -4.98992 -4.63016 -4.8457799999999995 -4.98992 -4.6679699999999995 -4.98992 L 4.680560000000001 -4.98992 L 4.680560000000001 -4.98992 C 4.851420000000001 -4.98992 4.989930000000001 -4.64422 4.989930000000001 -4.217779999999999 L 4.989930000000001 4.212860000000001 L 4.989930000000001 4.212860000000001 C 4.989930000000001 4.6420200000000005 4.850540000000001 4.989920000000001 4.678590000000001 4.989920000000001 L -4.624059999999999 4.989920000000001 L -4.624059999999999 4.989920000000001 C -4.8261199999999995 4.989920000000001 -4.989919999999999 4.5811 -4.989919999999999 4.076790000000001 z" stroke-linecap="round" />
</g>
<g transform="matrix(1 0 0 1 16.4168346774 19.8694556452)" id="z7Lz9fPxDUXDb88nfSKOP"  >
<path style="stroke: rgb(255,255,255); stroke-width: 1; stroke-dasharray: none; stroke-linecap: butt; stroke-dashoffset: 0; stroke-linejoin: miter; stroke-miterlimit: 4; fill: rgb(255,255,255); fill-rule: nonzero; opacity: 1;"  transform=" translate(0, -0.000005)" d="M -12.4249 -12.82409 L -3.6426399999999983 1.0478900000000007 L -3.6426399999999983 12.824100000000001 L 3.5428400000000018 12.824100000000001 L 3.5428400000000018 1.0478900000000007 L 12.424900000000001 -12.82409 L 4.141630000000001 -12.82409 L 0.049900000000000944 -5.8382 L -3.642639999999999 -12.82409 z" stroke-linecap="round" />
</g>
<g transform="matrix(2.1374494949 0 0 2.1374494949 34.517515121 23.849672379)" id="spX8q0bYkwSdVTSS1Q_lb"  >
<path style="stroke: rgb(25,48,59); stroke-width: 0; stroke-dasharray: none; stroke-linecap: butt; stroke-dashoffset: 0; stroke-linejoin: miter; stroke-miterlimit: 4; fill: rgb(255,255,255); fill-rule: nonzero; opacity: 1;"  transform=" translate(0, 0)" d="M 0 -4.98992 C 2.75444 -4.98992 4.98992 -2.7544399999999998 4.98992 0 C 4.98992 2.75444 2.7544399999999998 4.98992 0 4.98992 C -2.75444 4.98992 -4.98992 2.7544399999999998 -4.98992 0 C -4.98992 -2.75444 -2.7544399999999998 -4.98992 0 -4.98992 z" stroke-linecap="round" />
</g>
<g transform="matrix(1 0 0 1 34.517515121 23.849672379)" id="3Dr5Giot97v8rDw8ZGKJQ"  >
<path style="stroke: rgb(255,255,255); stroke-width: 0; stroke-dasharray: none; stroke-linecap: butt; stroke-dashoffset: 0; stroke-linejoin: miter; stroke-miterlimit: 4; fill: rgb(247,47,58); fill-rule: nonzero; opacity: 1;"  transform=" translate(-4.9899193548, -4.9899193548)" d="M 4.989919354838709 0 C 7.744354838709677 0 9.979838709677418 2.2354838709677414 9.979838709677418 4.989919354838709 C 9.979838709677418 7.744354838709677 7.744354838709677 9.979838709677418 4.989919354838709 9.979838709677418 C 2.2354838709677414 9.979838709677418 0 7.744354838709677 0 4.989919354838709 C 0 2.2354838709677414 2.2354838709677414 0 4.989919354838709 0 Z" stroke-linecap="round" />
</g>
<g transform="matrix(1 0 0 1 57.8830645161 18.9712701613)" id="xaMiQmVyw-A7qo_x1-dyj"  >
<path style="stroke: rgb(255,255,255); stroke-width: 1; stroke-dasharray: none; stroke-linecap: butt; stroke-dashoffset: 0; stroke-linejoin: miter; stroke-miterlimit: 4; fill: rgb(255,255,255); fill-rule: nonzero; opacity: 1;"  transform=" translate(-0.000005, 0)" d="M -10.47883 -13.62248 L -10.47883 13.62248 L -3.99193 13.62248 L -3.99193 7.63458 L 1.69658 13.62248 L 10.478840000000002 13.62248 L 2.395170000000002 4.878399999999999 L 9.780250000000002 -4.241430000000001 L 1.6965800000000026 -4.241430000000001 L -3.9919299999999973 1.546879999999999 L -3.9919299999999973 -13.62247 z" stroke-linecap="round" />
</g>
<g transform="matrix(1 0 0 1 73.5015120968 23.9611895161)" id="96Gfx8_tppzptrU7zEr9n"  >
<path style="stroke: rgb(255,255,255); stroke-width: 1; stroke-dasharray: none; stroke-linecap: butt; stroke-dashoffset: 0; stroke-linejoin: miter; stroke-miterlimit: 4; fill: rgb(255,255,255); fill-rule: nonzero; opacity: 1;"  transform=" translate(0, 0)" d="M -3.04385 -8.63256 L -3.04385 8.63256 L 3.04385 8.63256 L 3.04385 -8.63256 z" stroke-linecap="round" />
</g>
<g transform="matrix(0.725 0 0 0.725 73.427671371 10.1630544355)" id="ZUAwAGwG0XdBXwDnryd0-"  >
<path style="stroke: rgb(255,255,255); stroke-width: 0; stroke-dasharray: none; stroke-linecap: butt; stroke-dashoffset: 0; stroke-linejoin: miter; stroke-miterlimit: 4; fill: rgb(255,255,255); fill-rule: nonzero; opacity: 1;"  transform=" translate(0, 0)" d="M 0 -4.98992 C 2.75444 -4.98992 4.98992 -2.7544399999999998 4.98992 0 C 4.98992 2.75444 2.7544399999999998 4.98992 0 4.98992 C -2.75444 4.98992 -4.98992 2.7544399999999998 -4.98992 0 C -4.98992 -2.75444 -2.7544399999999998 -4.98992 0 -4.98992 z" stroke-linecap="round" />
</g>
<g transform="matrix(1 0 0 1 86.8744959677 23.4974066353)" id="Pv0xcbmBq_xICVO_Zw2Yq"  >
<path style="stroke: rgb(255,255,255); stroke-width: 1; stroke-dasharray: none; stroke-linecap: butt; stroke-dashoffset: 0; stroke-linejoin: miter; stroke-miterlimit: 4; fill: rgb(255,255,255); fill-rule: nonzero; opacity: 1;"  transform=" translate(0, 5.821e-7)" d="M 8.03377 -7.37039 C 8.03377 -7.37039 4.84022 -9.716660000000001 0.14970000000000017 -9.716660000000001 C -4.54082 -9.716660000000001 -6.3372 -6.572000000000001 -6.3372 -6.572000000000001 C -6.3372 -6.572000000000001 -7.73438 -2.0810700000000013 -6.3372 -0.48430000000000106 C -4.9400200000000005 1.112469999999999 -1.5468799999999998 2.310049999999999 -1.5468799999999998 2.310049999999999 C -1.5468799999999998 2.310049999999999 0.5488900000000001 1.711259999999999 1.0478800000000001 2.908839999999999 C 1.5468700000000002 4.106419999999999 0.5488900000000001 5.342179999999999 0.5488900000000001 5.342179999999999 C 0.5488900000000001 5.342179999999999 -1.3472799999999998 5.104399999999999 -2.54486 4.805009999999999 C -3.74244 4.505609999999999 -6.93599 2.9088399999999996 -6.93599 2.9088399999999996 L -8.03377 7.399769999999999 C -8.03377 7.399769999999999 -4.9400200000000005 9.49654 0.14969999999999928 9.69614 C 4.894759999999999 9.88222 5.7315499999999995 8.78974 7.587809999999999 6.94487 L 7.587809999999999 6.94487 C 7.873329999999999 6.6611 8.033819999999999 6.2751399999999995 8.03369 5.87259 L 8.03374 2.3572699999999998 L 8.03374 2.3572699999999998 C 8.03377 1.1863699999999997 7.40634 0.10523999999999978 6.38968 -0.4756300000000002 C 5.69637 -0.8717500000000002 5.005780000000001 -1.1905100000000002 4.12685 -1.3326000000000002 C 2.5992300000000004 -1.5795500000000002 1.49139 -1.9935400000000003 0.23552000000000017 -2.4491500000000004 L 0.23552000000000017 -2.4491500000000004 C 0.17959000000000017 -2.4694400000000005 0.13103000000000017 -2.5060300000000004 0.09611000000000017 -2.55419 C -0.3076199999999998 -3.111 -1.0072299999999998 -3.9627800000000004 0.14970000000000017 -4.63766 C 1.3472800000000003 -5.336250000000001 6.0378 -2.9792700000000005 6.0378 -2.9792700000000005 z" stroke-linecap="round" />
</g>
</svg>